<svg xmlns="http://www.w3.org/2000/svg" id="canvas" viewBox="55.544 361.601 235.114 35.033"><path d="M 65.22,364.62 C 64.99 364.68, 64.88 364.82, 64.63 365.15 C 64.38 365.47, 64.24 365.67, 63.97 366.22 C 63.70 366.78, 63.57 367.18, 63.26 367.93 C 62.96 368.68, 62.81 369.12, 62.46 369.98 C 62.11 370.83, 61.89 371.32, 61.50 372.23 C 61.11 373.13, 60.88 373.62, 60.50 374.51 C 60.13 375.39, 59.93 375.85, 59.63 376.67 C 59.32 377.48, 59.17 377.88, 58.97 378.58 C 58.77 379.29, 58.68 379.62, 58.60 380.21 C 58.53 380.79, 58.52 381.05, 58.60 381.52 C 58.68 381.99, 58.77 382.20, 59.02 382.56 C 59.26 382.91, 59.44 383.08, 59.84 383.30 C 60.25 383.52, 60.51 383.59, 61.05 383.66 C 61.59 383.72, 61.90 383.69, 62.54 383.63 C 63.18 383.56, 63.53 383.47, 64.24 383.31 C 64.94 383.16, 65.33 383.05, 66.06 382.86 C 66.79 382.67, 67.18 382.55, 67.87 382.36 C 68.56 382.16, 68.91 382.05, 69.51 381.88 C 70.12 381.71, 70.42 381.66, 70.90 381.50 C 71.39 381.34, 71.63 381.25, 71.96 381.07 C 72.28 380.89, 72.43 380.78, 72.52 380.59 C 72.61 380.40, 72.57 380.25, 72.40 380.12 C 72.24 380.00, 72.06 379.97, 71.69 379.96 C 71.32 379.94, 71.06 379.96, 70.55 380.04 C 70.04 380.12, 69.75 380.22, 69.13 380.36 C 68.51 380.50, 68.15 380.59, 67.46 380.75 C 66.76 380.91, 66.37 381.00, 65.65 381.16 C 64.93 381.33, 64.54 381.42, 63.87 381.56 C 63.20 381.69, 62.86 381.75, 62.31 381.84 C 61.75 381.92, 61.48 381.95, 61.08 381.99 C 60.68 382.03, 60.54 382.07, 60.31 382.05 C 60.08 382.04, 60.03 382.04, 59.93 381.90 C 59.83 381.77, 59.81 381.69, 59.81 381.39 C 59.81 381.10, 59.84 380.92, 59.95 380.44 C 60.06 379.97, 60.15 379.67, 60.38 379.03 C 60.61 378.40, 60.76 378.02, 61.08 377.25 C 61.41 376.48, 61.62 376.04, 62.02 375.18 C 62.42 374.31, 62.66 373.83, 63.08 372.93 C 63.50 372.04, 63.73 371.55, 64.12 370.69 C 64.51 369.84, 64.72 369.41, 65.03 368.65 C 65.34 367.89, 65.50 367.48, 65.68 366.88 C 65.85 366.28, 65.88 366.04, 65.91 365.63 C 65.93 365.23, 65.95 365.05, 65.81 364.84 C 65.68 364.64, 65.46 364.56, 65.22 364.62" style="stroke: black; fill: black;"/><path d="M 77.44,373.41 C 77.21 373.43, 77.13 373.51, 76.89 373.74 C 76.65 373.97, 76.49 374.12, 76.24 374.55 C 75.99 374.98, 75.85 375.30, 75.63 375.87 C 75.41 376.45, 75.31 376.80, 75.15 377.41 C 74.99 378.02, 74.90 378.35, 74.83 378.92 C 74.77 379.49, 74.74 379.78, 74.83 380.28 C 74.92 380.77, 75.01 381.02, 75.28 381.39 C 75.56 381.76, 75.76 381.94, 76.20 382.14 C 76.64 382.34, 76.93 382.39, 77.48 382.37 C 78.04 382.36, 78.36 382.27, 78.99 382.05 C 79.62 381.82, 79.96 381.64, 80.62 381.24 C 81.29 380.84, 81.65 380.58, 82.31 380.05 C 82.98 379.52, 83.33 379.20, 83.95 378.60 C 84.57 378.00, 84.89 377.66, 85.42 377.04 C 85.95 376.43, 86.21 376.09, 86.60 375.53 C 87.00 374.97, 87.22 374.71, 87.41 374.25 C 87.60 373.78, 87.64 373.51, 87.54 373.22 C 87.44 372.92, 87.22 372.77, 86.90 372.76 C 86.58 372.76, 86.30 372.87, 85.93 373.19 C 85.57 373.51, 85.36 373.81, 85.07 374.38 C 84.77 374.95, 84.68 375.39, 84.47 376.05 C 84.26 376.71, 84.15 377.08, 84.02 377.69 C 83.89 378.30, 83.82 378.59, 83.81 379.11 C 83.80 379.63, 83.81 379.91, 83.95 380.27 C 84.10 380.64, 84.32 380.85, 84.54 380.94 C 84.76 381.03, 84.95 380.88, 85.05 380.71 C 85.16 380.54, 85.03 380.36, 85.07 380.08 C 85.10 379.80, 85.11 379.68, 85.22 379.30 C 85.33 378.92, 85.40 378.67, 85.61 378.17 C 85.81 377.66, 85.97 377.34, 86.26 376.77 C 86.54 376.20, 86.79 375.86, 87.03 375.32 C 87.27 374.78, 87.39 374.50, 87.46 374.07 C 87.52 373.65, 87.49 373.41, 87.37 373.19 C 87.25 372.96, 87.08 372.89, 86.84 372.95 C 86.60 373.01, 86.47 373.17, 86.18 373.50 C 85.88 373.82, 85.76 374.10, 85.36 374.59 C 84.96 375.08, 84.71 375.39, 84.19 375.94 C 83.68 376.50, 83.37 376.81, 82.78 377.36 C 82.19 377.90, 81.85 378.19, 81.23 378.66 C 80.62 379.13, 80.28 379.36, 79.70 379.71 C 79.12 380.06, 78.82 380.19, 78.34 380.41 C 77.85 380.63, 77.62 380.69, 77.28 380.79 C 76.94 380.89, 76.82 380.91, 76.61 380.89 C 76.41 380.88, 76.35 380.86, 76.27 380.71 C 76.18 380.57, 76.17 380.46, 76.19 380.17 C 76.22 379.87, 76.26 379.66, 76.39 379.22 C 76.52 378.78, 76.64 378.50, 76.86 377.98 C 77.07 377.46, 77.25 377.15, 77.47 376.61 C 77.70 376.08, 77.85 375.78, 77.99 375.32 C 78.13 374.85, 78.17 374.63, 78.17 374.29 C 78.17 373.96, 78.15 373.81, 78.01 373.64 C 77.86 373.46, 77.66 373.39, 77.44 373.41" style="stroke: black; fill: black;"/><path d="M 93.05,374.41 C 92.83 374.43, 92.74 374.51, 92.51 374.73 C 92.28 374.94, 92.13 375.09, 91.89 375.48 C 91.65 375.87, 91.51 376.17, 91.31 376.67 C 91.10 377.17, 90.97 377.48, 90.87 378.00 C 90.77 378.52, 90.69 378.96, 90.81 379.28 C 90.92 379.59, 91.14 379.69, 91.46 379.58 C 91.78 379.46, 92.05 379.12, 92.39 378.71 C 92.72 378.29, 92.87 378.00, 93.13 377.51 C 93.38 377.03, 93.52 376.73, 93.66 376.28 C 93.79 375.83, 93.82 375.59, 93.81 375.26 C 93.81 374.93, 93.78 374.79, 93.62 374.62 C 93.47 374.45, 93.27 374.39, 93.05 374.41" style="stroke: black; fill: black;"/><path d="M 95.55,367.81 C 95.75 367.68, 95.82 367.59, 95.78 367.55 C 95.74 367.51, 95.57 367.56, 95.35 367.61 C 95.14 367.66, 94.92 367.70, 94.72 367.80 C 94.53 367.91, 94.37 368.05, 94.38 368.14 C 94.39 368.22, 94.55 368.27, 94.78 368.21 C 95.02 368.14, 95.35 367.95, 95.55 367.81" style="stroke: black; fill: black;"/><path d="M 104.03,372.23 C 103.90 372.02, 103.73 371.94, 103.37 371.83 C 103.01 371.72, 102.76 371.67, 102.24 371.70 C 101.71 371.72, 101.34 371.78, 100.75 371.94 C 100.16 372.10, 99.83 372.26, 99.28 372.51 C 98.73 372.76, 98.43 372.89, 98.00 373.19 C 97.57 373.50, 97.36 373.66, 97.12 374.04 C 96.88 374.41, 96.80 374.65, 96.81 375.06 C 96.82 375.47, 96.91 375.71, 97.16 376.07 C 97.41 376.44, 97.62 376.61, 98.06 376.89 C 98.49 377.17, 98.81 377.26, 99.35 377.45 C 99.89 377.65, 100.23 377.71, 100.77 377.86 C 101.30 378.02, 101.60 378.10, 102.03 378.23 C 102.46 378.36, 102.67 378.44, 102.93 378.53 C 103.19 378.62, 103.27 378.63, 103.31 378.67 C 103.36 378.72, 103.32 378.69, 103.16 378.74 C 102.99 378.80, 102.85 378.83, 102.50 378.95 C 102.15 379.07, 101.91 379.17, 101.42 379.34 C 100.92 379.52, 100.59 379.64, 100.02 379.82 C 99.44 379.99, 99.09 380.09, 98.53 380.22 C 97.96 380.34, 97.65 380.39, 97.17 380.46 C 96.69 380.52, 96.47 380.52, 96.14 380.54 C 95.81 380.56, 95.69 380.54, 95.53 380.55 C 95.36 380.57, 95.34 380.58, 95.30 380.63 C 95.26 380.67, 95.31 380.70, 95.33 380.79 C 95.36 380.89, 95.41 381.01, 95.43 381.12 C 95.46 381.22, 95.46 381.30, 95.46 381.33 C 95.47 381.37, 95.46 381.37, 95.46 381.29 C 95.47 381.21, 95.50 381.13, 95.48 380.91 C 95.47 380.69, 95.43 380.42, 95.37 380.21 C 95.31 380.00, 95.26 379.93, 95.17 379.86 C 95.09 379.80, 95.03 379.81, 94.94 379.88 C 94.85 379.95, 94.78 380.04, 94.72 380.21 C 94.67 380.38, 94.65 380.54, 94.67 380.74 C 94.68 380.94, 94.70 381.03, 94.81 381.21 C 94.92 381.38, 94.97 381.46, 95.21 381.60 C 95.45 381.74, 95.60 381.83, 96.01 381.92 C 96.42 382.01, 96.71 382.04, 97.27 382.04 C 97.84 382.03, 98.18 382.00, 98.83 381.91 C 99.47 381.82, 99.85 381.75, 100.50 381.59 C 101.15 381.43, 101.52 381.34, 102.09 381.11 C 102.66 380.87, 102.95 380.75, 103.36 380.42 C 103.78 380.10, 103.96 379.88, 104.14 379.48 C 104.32 379.07, 104.34 378.81, 104.26 378.40 C 104.18 378.00, 104.05 377.78, 103.73 377.45 C 103.41 377.11, 103.15 376.98, 102.68 376.72 C 102.21 376.47, 101.89 376.37, 101.36 376.15 C 100.82 375.94, 100.50 375.83, 99.99 375.65 C 99.49 375.47, 99.21 375.38, 98.83 375.26 C 98.44 375.15, 98.28 375.12, 98.07 375.08 C 97.86 375.03, 97.79 375.05, 97.78 375.02 C 97.77 374.98, 97.83 374.98, 98.02 374.89 C 98.22 374.80, 98.39 374.72, 98.76 374.57 C 99.14 374.43, 99.42 374.32, 99.92 374.17 C 100.41 374.02, 100.72 373.94, 101.23 373.81 C 101.75 373.69, 102.05 373.66, 102.49 373.55 C 102.93 373.44, 103.13 373.40, 103.44 373.26 C 103.74 373.12, 103.91 373.08, 104.03 372.87 C 104.14 372.67, 104.16 372.43, 104.03 372.23" style="stroke: black; fill: black;"/><path d="M 113.93,370.70 C 113.72 370.73, 113.67 370.80, 113.46 371.03 C 113.24 371.26, 113.12 371.39, 112.87 371.83 C 112.62 372.27, 112.52 372.59, 112.21 373.21 C 111.91 373.83, 111.74 374.22, 111.36 374.93 C 110.99 375.64, 110.76 376.06, 110.34 376.78 C 109.93 377.51, 109.70 377.90, 109.30 378.57 C 108.90 379.23, 108.69 379.57, 108.36 380.12 C 108.02 380.67, 107.85 380.94, 107.64 381.33 C 107.42 381.73, 107.34 381.88, 107.27 382.10 C 107.19 382.31, 107.21 382.32, 107.25 382.40 C 107.30 382.49, 107.41 382.52, 107.48 382.53 C 107.55 382.55, 107.71 382.48, 107.60 382.46 C 107.49 382.45, 107.06 382.40, 106.95 382.45 C 106.84 382.50, 106.95 382.63, 107.06 382.73 C 107.17 382.82, 107.28 382.91, 107.48 382.93 C 107.68 382.95, 107.80 382.98, 108.06 382.82 C 108.32 382.66, 108.47 382.50, 108.79 382.13 C 109.10 381.76, 109.26 381.50, 109.64 380.96 C 110.02 380.42, 110.25 380.10, 110.69 379.44 C 111.13 378.79, 111.38 378.40, 111.84 377.68 C 112.30 376.96, 112.55 376.56, 112.98 375.83 C 113.41 375.11, 113.66 374.73, 113.98 374.07 C 114.30 373.41, 114.44 373.06, 114.59 372.53 C 114.73 372.01, 114.72 371.79, 114.71 371.46 C 114.69 371.12, 114.65 371.01, 114.49 370.86 C 114.34 370.70, 114.14 370.66, 113.93 370.70" style="stroke: black; fill: black;"/><path d="M 113.38,369.09 C 113.61 369.15, 113.73 369.05, 114.00 368.96 C 114.28 368.87, 114.41 368.78, 114.75 368.63 C 115.09 368.48, 115.28 368.36, 115.70 368.23 C 116.13 368.10, 116.39 368.04, 116.87 367.98 C 117.34 367.92, 117.62 367.90, 118.08 367.92 C 118.53 367.95, 118.76 367.99, 119.13 368.09 C 119.50 368.19, 119.67 368.28, 119.92 368.42 C 120.16 368.57, 120.27 368.65, 120.36 368.82 C 120.45 369.00, 120.47 369.06, 120.39 369.29 C 120.31 369.52, 120.23 369.65, 119.95 369.97 C 119.68 370.28, 119.49 370.48, 119.02 370.88 C 118.55 371.28, 118.24 371.51, 117.60 371.96 C 116.96 372.40, 116.56 372.66, 115.83 373.11 C 115.10 373.55, 114.68 373.78, 113.96 374.19 C 113.25 374.60, 112.86 374.79, 112.25 375.14 C 111.65 375.49, 111.35 375.64, 110.93 375.96 C 110.52 376.28, 110.36 376.41, 110.17 376.74 C 109.99 377.07, 109.97 377.26, 110.00 377.60 C 110.03 377.95, 110.12 378.16, 110.34 378.47 C 110.56 378.79, 110.73 378.92, 111.10 379.17 C 111.47 379.43, 111.72 379.52, 112.19 379.75 C 112.67 379.99, 112.95 380.10, 113.48 380.35 C 114.00 380.59, 114.29 380.71, 114.83 380.97 C 115.37 381.23, 115.64 381.39, 116.18 381.64 C 116.71 381.89, 117.02 382.03, 117.52 382.21 C 118.01 382.39, 118.26 382.47, 118.66 382.52 C 119.06 382.57, 119.30 382.58, 119.50 382.47 C 119.71 382.36, 119.77 382.20, 119.70 381.98 C 119.63 381.76, 119.46 381.63, 119.16 381.37 C 118.86 381.12, 118.64 380.97, 118.18 380.72 C 117.73 380.47, 117.40 380.38, 116.88 380.13 C 116.36 379.88, 116.10 379.74, 115.58 379.47 C 115.05 379.20, 114.77 379.05, 114.26 378.77 C 113.76 378.50, 113.50 378.35, 113.05 378.11 C 112.60 377.86, 112.38 377.71, 112.01 377.55 C 111.64 377.39, 111.44 377.35, 111.18 377.31 C 110.93 377.28, 110.80 377.37, 110.74 377.39 C 110.68 377.41, 110.69 377.46, 110.87 377.41 C 111.05 377.36, 111.21 377.31, 111.63 377.14 C 112.05 376.96, 112.36 376.82, 112.98 376.53 C 113.61 376.24, 114.01 376.06, 114.76 375.68 C 115.51 375.30, 115.96 375.08, 116.73 374.63 C 117.51 374.19, 117.94 373.94, 118.64 373.45 C 119.34 372.96, 119.69 372.71, 120.22 372.19 C 120.75 371.68, 120.99 371.41, 121.29 370.88 C 121.60 370.34, 121.69 370.05, 121.74 369.53 C 121.79 369.01, 121.73 368.73, 121.54 368.28 C 121.35 367.83, 121.16 367.62, 120.77 367.29 C 120.39 366.96, 120.13 366.84, 119.63 366.64 C 119.12 366.44, 118.82 366.38, 118.24 366.30 C 117.66 366.22, 117.33 366.21, 116.72 366.24 C 116.11 366.27, 115.76 366.29, 115.19 366.45 C 114.61 366.61, 114.28 366.76, 113.86 367.04 C 113.43 367.33, 113.24 367.55, 113.04 367.88 C 112.85 368.20, 112.81 368.42, 112.88 368.66 C 112.95 368.90, 113.16 369.03, 113.38 369.09" style="stroke: black; fill: black;"/><path d="M 131.79,375.40 C 131.84 375.17, 131.79 374.99, 131.60 374.75 C 131.41 374.51, 131.23 374.36, 130.83 374.20 C 130.43 374.05, 130.13 373.98, 129.59 373.98 C 129.05 373.99, 128.74 374.05, 128.12 374.22 C 127.50 374.40, 127.15 374.52, 126.49 374.84 C 125.84 375.16, 125.47 375.37, 124.86 375.82 C 124.24 376.27, 123.91 376.55, 123.42 377.07 C 122.94 377.60, 122.70 377.91, 122.42 378.47 C 122.14 379.02, 122.04 379.33, 122.03 379.87 C 122.01 380.41, 122.08 380.71, 122.35 381.16 C 122.63 381.61, 122.86 381.84, 123.38 382.12 C 123.90 382.40, 124.25 382.50, 124.94 382.57 C 125.63 382.65, 126.05 382.62, 126.83 382.51 C 127.61 382.39, 128.06 382.27, 128.85 382.01 C 129.64 381.75, 130.06 381.57, 130.79 381.20 C 131.52 380.82, 131.89 380.60, 132.49 380.14 C 133.08 379.68, 133.36 379.41, 133.75 378.89 C 134.14 378.38, 134.29 378.09, 134.46 377.55 C 134.62 377.02, 134.64 376.72, 134.57 376.22 C 134.50 375.72, 134.37 375.46, 134.10 375.05 C 133.83 374.65, 133.61 374.45, 133.22 374.21 C 132.83 373.96, 132.53 373.88, 132.15 373.84 C 131.76 373.80, 131.56 373.88, 131.30 373.99 C 131.05 374.11, 130.94 374.23, 130.87 374.41 C 130.80 374.58, 130.86 374.73, 130.95 374.88 C 131.04 375.03, 131.14 375.05, 131.31 375.16 C 131.47 375.27, 131.56 375.35, 131.80 375.44 C 132.03 375.53, 132.22 375.53, 132.47 375.62 C 132.71 375.71, 132.84 375.75, 133.00 375.91 C 133.16 376.07, 133.24 376.17, 133.28 376.41 C 133.32 376.65, 133.33 376.80, 133.20 377.11 C 133.07 377.42, 132.96 377.62, 132.63 377.97 C 132.31 378.32, 132.08 378.52, 131.56 378.87 C 131.05 379.21, 130.71 379.40, 130.06 379.69 C 129.41 379.99, 129.02 380.13, 128.32 380.34 C 127.62 380.54, 127.22 380.62, 126.56 380.72 C 125.91 380.83, 125.56 380.84, 125.04 380.84 C 124.52 380.84, 124.29 380.82, 123.95 380.74 C 123.61 380.67, 123.49 380.63, 123.35 380.48 C 123.21 380.33, 123.19 380.24, 123.25 379.99 C 123.32 379.74, 123.41 379.58, 123.68 379.23 C 123.95 378.88, 124.16 378.64, 124.60 378.25 C 125.03 377.86, 125.33 377.62, 125.87 377.26 C 126.40 376.91, 126.73 376.72, 127.28 376.46 C 127.83 376.19, 128.14 376.08, 128.61 375.93 C 129.08 375.79, 129.29 375.76, 129.64 375.74 C 129.98 375.72, 130.10 375.80, 130.34 375.84 C 130.58 375.87, 130.63 375.92, 130.83 375.93 C 131.03 375.94, 131.14 376.01, 131.33 375.90 C 131.52 375.80, 131.73 375.64, 131.79 375.40" style="stroke: black; fill: black;"/><path d="M 146.80,376.49 C 146.83 376.25, 146.76 376.08, 146.55 375.84 C 146.34 375.60, 146.17 375.45, 145.76 375.29 C 145.35 375.13, 145.05 375.06, 144.51 375.04 C 143.97 375.02, 143.66 375.07, 143.05 375.20 C 142.44 375.33, 142.11 375.42, 141.47 375.68 C 140.82 375.94, 140.46 376.11, 139.84 376.50 C 139.21 376.88, 138.87 377.13, 138.35 377.60 C 137.82 378.08, 137.56 378.35, 137.20 378.87 C 136.85 379.38, 136.70 379.66, 136.58 380.17 C 136.45 380.67, 136.45 380.95, 136.59 381.40 C 136.73 381.84, 136.89 382.08, 137.26 382.39 C 137.63 382.69, 137.91 382.83, 138.46 382.93 C 139.01 383.04, 139.35 383.03, 140.00 382.93 C 140.65 382.83, 141.01 382.71, 141.71 382.43 C 142.41 382.15, 142.79 381.96, 143.49 381.54 C 144.20 381.11, 144.58 380.85, 145.25 380.30 C 145.93 379.75, 146.26 379.43, 146.87 378.79 C 147.48 378.14, 147.77 377.78, 148.29 377.09 C 148.81 376.39, 149.05 376.00, 149.47 375.29 C 149.89 374.58, 150.07 374.20, 150.39 373.53 C 150.71 372.85, 150.84 372.52, 151.07 371.92 C 151.30 371.31, 151.40 371.02, 151.54 370.51 C 151.68 370.00, 151.79 369.77, 151.79 369.35 C 151.80 368.94, 151.77 368.69, 151.56 368.44 C 151.36 368.18, 151.10 368.05, 150.74 368.08 C 150.39 368.11, 150.16 368.22, 149.78 368.58 C 149.40 368.94, 149.22 369.25, 148.86 369.89 C 148.50 370.53, 148.34 370.99, 147.99 371.78 C 147.64 372.58, 147.43 373.04, 147.09 373.86 C 146.75 374.67, 146.58 375.11, 146.28 375.87 C 145.99 376.64, 145.84 377.02, 145.63 377.70 C 145.42 378.39, 145.33 378.71, 145.22 379.29 C 145.11 379.87, 145.08 380.14, 145.08 380.60 C 145.09 381.05, 145.13 381.27, 145.23 381.57 C 145.34 381.87, 145.46 381.96, 145.62 382.09 C 145.77 382.22, 145.86 382.23, 146.00 382.21 C 146.13 382.19, 146.20 382.07, 146.27 381.98 C 146.34 381.88, 146.31 381.86, 146.34 381.74 C 146.37 381.61, 146.41 381.58, 146.42 381.36 C 146.44 381.14, 146.39 381.00, 146.43 380.65 C 146.46 380.30, 146.48 380.09, 146.61 379.60 C 146.73 379.11, 146.83 378.82, 147.06 378.19 C 147.30 377.57, 147.45 377.21, 147.78 376.49 C 148.10 375.77, 148.30 375.36, 148.69 374.59 C 149.08 373.82, 149.33 373.39, 149.73 372.64 C 150.14 371.89, 150.40 371.48, 150.71 370.85 C 151.01 370.22, 151.15 369.90, 151.26 369.47 C 151.36 369.03, 151.32 368.86, 151.23 368.67 C 151.13 368.49, 150.94 368.45, 150.78 368.54 C 150.61 368.63, 150.53 368.79, 150.40 369.10 C 150.27 369.41, 150.29 369.64, 150.15 370.10 C 150.00 370.55, 149.91 370.81, 149.68 371.36 C 149.45 371.91, 149.31 372.22, 149.00 372.84 C 148.68 373.47, 148.51 373.81, 148.11 374.47 C 147.71 375.12, 147.48 375.48, 147.00 376.11 C 146.51 376.75, 146.24 377.08, 145.69 377.65 C 145.13 378.23, 144.82 378.51, 144.20 378.99 C 143.59 379.47, 143.25 379.69, 142.62 380.05 C 141.99 380.41, 141.65 380.56, 141.06 380.79 C 140.48 381.02, 140.17 381.09, 139.68 381.19 C 139.19 381.30, 138.96 381.30, 138.62 381.32 C 138.27 381.34, 138.14 381.34, 137.94 381.29 C 137.75 381.25, 137.69 381.23, 137.66 381.09 C 137.64 380.96, 137.66 380.87, 137.81 380.61 C 137.96 380.36, 138.09 380.17, 138.42 379.83 C 138.74 379.48, 138.97 379.25, 139.43 378.89 C 139.90 378.52, 140.20 378.31, 140.74 377.99 C 141.28 377.68, 141.59 377.52, 142.12 377.30 C 142.66 377.08, 142.95 377.00, 143.41 376.90 C 143.88 376.80, 144.08 376.79, 144.44 376.81 C 144.81 376.82, 144.95 376.92, 145.23 376.97 C 145.52 377.03, 145.62 377.07, 145.85 377.08 C 146.08 377.09, 146.21 377.15, 146.41 377.03 C 146.60 376.91, 146.78 376.73, 146.80 376.49" style="stroke: black; fill: black;"/><path d="M 153.61,377.59 C 153.38 377.60, 153.29 377.69, 153.08 377.87 C 152.86 378.05, 152.74 378.17, 152.52 378.49 C 152.29 378.81, 152.17 379.06, 151.97 379.46 C 151.77 379.87, 151.67 380.13, 151.51 380.51 C 151.34 380.88, 151.20 381.06, 151.13 381.35 C 151.06 381.64, 151.06 381.79, 151.16 381.97 C 151.26 382.15, 151.41 382.23, 151.63 382.24 C 151.84 382.24, 152.01 382.20, 152.23 381.99 C 152.46 381.78, 152.54 381.59, 152.74 381.20 C 152.93 380.81, 152.97 380.52, 153.20 380.06 C 153.44 379.59, 153.58 379.33, 153.91 378.88 C 154.24 378.42, 154.45 378.19, 154.84 377.79 C 155.22 377.40, 155.44 377.20, 155.85 376.90 C 156.25 376.60, 156.47 376.47, 156.86 376.28 C 157.24 376.08, 157.44 376.01, 157.77 375.92 C 158.11 375.83, 158.25 375.81, 158.53 375.83 C 158.81 375.85, 158.91 375.93, 159.17 376.01 C 159.44 376.08, 159.58 376.18, 159.84 376.20 C 160.10 376.22, 160.29 376.22, 160.47 376.09 C 160.65 375.96, 160.76 375.79, 160.75 375.56 C 160.73 375.33, 160.63 375.15, 160.40 374.95 C 160.17 374.75, 159.95 374.65, 159.58 374.55 C 159.22 374.45, 159.00 374.45, 158.58 374.44 C 158.15 374.44, 157.93 374.43, 157.46 374.52 C 156.99 374.61, 156.73 374.69, 156.22 374.91 C 155.72 375.12, 155.45 375.27, 154.94 375.60 C 154.43 375.94, 154.17 376.15, 153.69 376.59 C 153.20 377.03, 152.95 377.29, 152.53 377.79 C 152.11 378.30, 151.91 378.59, 151.57 379.10 C 151.23 379.62, 151.04 379.89, 150.85 380.36 C 150.66 380.82, 150.59 381.07, 150.62 381.45 C 150.65 381.82, 150.77 382.02, 150.98 382.23 C 151.19 382.45, 151.40 382.53, 151.69 382.52 C 151.98 382.52, 152.14 382.43, 152.42 382.21 C 152.69 381.99, 152.81 381.77, 153.07 381.41 C 153.33 381.05, 153.49 380.81, 153.73 380.40 C 153.96 379.98, 154.10 379.73, 154.23 379.34 C 154.36 378.95, 154.38 378.75, 154.38 378.44 C 154.37 378.14, 154.35 377.99, 154.20 377.82 C 154.04 377.65, 153.83 377.58, 153.61 377.59" style="stroke: black; fill: black;"/><path d="M 165.84,375.84 C 165.62 375.83, 165.53 375.88, 165.27 376.07 C 165.00 376.25, 164.83 376.38, 164.53 376.75 C 164.23 377.12, 164.06 377.41, 163.77 377.91 C 163.48 378.41, 163.33 378.73, 163.07 379.25 C 162.80 379.77, 162.64 380.05, 162.45 380.51 C 162.26 380.98, 162.17 381.21, 162.10 381.56 C 162.03 381.91, 162.07 382.07, 162.12 382.28 C 162.16 382.50, 162.20 382.56, 162.31 382.64 C 162.41 382.73, 162.52 382.73, 162.64 382.71 C 162.77 382.68, 162.79 382.65, 162.94 382.53 C 163.08 382.41, 163.17 382.34, 163.36 382.09 C 163.55 381.84, 163.62 381.65, 163.88 381.26 C 164.13 380.88, 164.30 380.63, 164.62 380.17 C 164.94 379.71, 165.16 379.43, 165.47 378.95 C 165.78 378.47, 165.97 378.21, 166.17 377.77 C 166.37 377.34, 166.43 377.11, 166.47 376.78 C 166.51 376.45, 166.49 376.32, 166.37 376.13 C 166.24 375.94, 166.06 375.86, 165.84 375.84" style="stroke: black; fill: black;"/><path d="M 168.88,370.51 C 169.01 370.58, 168.92 370.64, 168.83 370.78 C 168.73 370.91, 168.54 371.06, 168.40 371.19 C 168.27 371.32, 168.19 371.38, 168.14 371.42 C 168.09 371.46, 168.13 371.44, 168.17 371.39 C 168.21 371.35, 168.23 371.28, 168.35 371.20 C 168.46 371.12, 168.54 371.11, 168.73 371.00 C 168.93 370.88, 169.14 370.79, 169.30 370.63 C 169.46 370.47, 169.50 370.37, 169.54 370.20 C 169.58 370.03, 169.56 369.92, 169.49 369.79 C 169.43 369.66, 169.38 369.57, 169.23 369.55 C 169.08 369.53, 168.94 369.57, 168.74 369.69 C 168.54 369.80, 168.34 369.97, 168.22 370.12 C 168.11 370.27, 168.03 370.38, 168.16 370.46 C 168.30 370.54, 168.74 370.45, 168.88 370.51" style="stroke: black; fill: black;"/><path d="M 177.33,377.01 C 177.37 376.77, 177.31 376.60, 177.12 376.36 C 176.93 376.12, 176.76 375.97, 176.38 375.81 C 176.01 375.65, 175.72 375.58, 175.23 375.56 C 174.74 375.54, 174.46 375.58, 173.92 375.70 C 173.39 375.81, 173.09 375.90, 172.55 376.14 C 172.01 376.37, 171.70 376.53, 171.23 376.88 C 170.75 377.22, 170.49 377.44, 170.16 377.85 C 169.82 378.25, 169.66 378.49, 169.53 378.92 C 169.40 379.35, 169.38 379.61, 169.50 380.00 C 169.62 380.39, 169.77 380.62, 170.12 380.88 C 170.47 381.14, 170.74 381.23, 171.25 381.28 C 171.77 381.34, 172.08 381.28, 172.68 381.14 C 173.28 381.00, 173.63 380.86, 174.26 380.59 C 174.89 380.32, 175.25 380.12, 175.84 379.78 C 176.44 379.44, 176.75 379.23, 177.23 378.89 C 177.71 378.54, 177.97 378.38, 178.24 378.07 C 178.52 377.76, 178.61 377.58, 178.62 377.34 C 178.62 377.11, 178.49 376.96, 178.27 376.89 C 178.05 376.83, 177.81 376.83, 177.52 377.03 C 177.23 377.22, 177.06 377.44, 176.81 377.89 C 176.55 378.34, 176.47 378.68, 176.25 379.29 C 176.03 379.90, 175.91 380.26, 175.69 380.95 C 175.46 381.63, 175.35 382.00, 175.12 382.70 C 174.89 383.41, 174.79 383.78, 174.56 384.46 C 174.33 385.14, 174.22 385.49, 173.96 386.11 C 173.70 386.73, 173.57 387.03, 173.27 387.57 C 172.98 388.11, 172.83 388.36, 172.50 388.80 C 172.17 389.25, 171.98 389.44, 171.62 389.77 C 171.26 390.11, 171.06 390.25, 170.69 390.48 C 170.32 390.71, 170.12 390.79, 169.76 390.91 C 169.40 391.03, 169.21 391.06, 168.89 391.08 C 168.56 391.10, 168.40 391.08, 168.13 391.02 C 167.87 390.96, 167.76 390.91, 167.58 390.77 C 167.40 390.63, 167.36 390.52, 167.25 390.33 C 167.14 390.14, 167.12 390.00, 167.03 389.83 C 166.93 389.66, 166.88 389.61, 166.77 389.48 C 166.67 389.35, 166.65 389.25, 166.49 389.18 C 166.33 389.12, 166.14 389.07, 165.97 389.15 C 165.80 389.23, 165.71 389.35, 165.63 389.58 C 165.56 389.81, 165.52 389.97, 165.58 390.29 C 165.65 390.61, 165.71 390.84, 165.94 391.17 C 166.17 391.51, 166.36 391.71, 166.73 391.96 C 167.09 392.22, 167.33 392.32, 167.77 392.44 C 168.22 392.55, 168.47 392.58, 168.97 392.56 C 169.46 392.54, 169.72 392.49, 170.22 392.33 C 170.72 392.17, 170.98 392.05, 171.46 391.76 C 171.94 391.47, 172.19 391.29, 172.64 390.89 C 173.09 390.48, 173.31 390.24, 173.70 389.72 C 174.10 389.21, 174.28 388.92, 174.62 388.32 C 174.96 387.73, 175.12 387.39, 175.42 386.73 C 175.71 386.07, 175.83 385.71, 176.09 385.01 C 176.36 384.32, 176.47 383.94, 176.72 383.25 C 176.97 382.56, 177.10 382.20, 177.36 381.56 C 177.62 380.91, 177.76 380.58, 178.01 380.02 C 178.27 379.47, 178.47 379.23, 178.65 378.78 C 178.83 378.34, 178.91 378.15, 178.92 377.81 C 178.93 377.46, 178.85 377.29, 178.70 377.07 C 178.54 376.85, 178.41 376.74, 178.14 376.71 C 177.88 376.67, 177.74 376.73, 177.38 376.89 C 177.02 377.05, 176.82 377.23, 176.35 377.50 C 175.87 377.76, 175.57 377.94, 175.01 378.22 C 174.45 378.50, 174.11 378.65, 173.55 378.88 C 172.99 379.10, 172.67 379.19, 172.20 379.34 C 171.73 379.49, 171.50 379.53, 171.19 379.61 C 170.87 379.70, 170.77 379.74, 170.63 379.77 C 170.49 379.80, 170.48 379.83, 170.50 379.78 C 170.52 379.73, 170.57 379.68, 170.73 379.51 C 170.89 379.35, 171.01 379.20, 171.30 378.96 C 171.59 378.72, 171.80 378.55, 172.19 378.31 C 172.58 378.07, 172.83 377.93, 173.25 377.75 C 173.68 377.56, 173.92 377.48, 174.30 377.39 C 174.68 377.30, 174.85 377.30, 175.15 377.31 C 175.45 377.32, 175.57 377.39, 175.81 377.45 C 176.05 377.50, 176.12 377.57, 176.33 377.59 C 176.55 377.61, 176.71 377.67, 176.91 377.55 C 177.11 377.44, 177.29 377.25, 177.33 377.01" style="stroke: black; fill: black;"/><path d="M 184.97,375.70 C 184.74 375.69, 184.64 375.77, 184.38 375.97 C 184.13 376.16, 183.97 376.29, 183.70 376.66 C 183.43 377.04, 183.28 377.33, 183.04 377.84 C 182.80 378.35, 182.69 378.66, 182.51 379.21 C 182.32 379.75, 182.21 380.04, 182.11 380.57 C 182.00 381.09, 181.95 381.36, 181.99 381.84 C 182.02 382.31, 182.08 382.55, 182.28 382.94 C 182.49 383.32, 182.66 383.52, 183.03 383.76 C 183.41 384.00, 183.67 384.10, 184.17 384.15 C 184.67 384.21, 184.96 384.18, 185.55 384.04 C 186.13 383.91, 186.46 383.78, 187.10 383.48 C 187.74 383.18, 188.10 382.99, 188.77 382.55 C 189.44 382.12, 189.79 381.85, 190.43 381.32 C 191.08 380.79, 191.41 380.48, 191.98 379.90 C 192.55 379.33, 192.84 379.00, 193.28 378.44 C 193.73 377.89, 193.93 377.60, 194.20 377.12 C 194.47 376.65, 194.59 376.43, 194.62 376.07 C 194.65 375.71, 194.57 375.49, 194.34 375.32 C 194.11 375.15, 193.83 375.10, 193.46 375.23 C 193.10 375.35, 192.86 375.55, 192.52 375.96 C 192.19 376.37, 192.04 376.70, 191.78 377.28 C 191.52 377.85, 191.40 378.22, 191.21 378.83 C 191.02 379.44, 190.92 379.76, 190.82 380.32 C 190.72 380.88, 190.69 381.15, 190.71 381.63 C 190.73 382.12, 190.76 382.34, 190.94 382.75 C 191.11 383.16, 191.24 383.39, 191.57 383.68 C 191.90 383.97, 192.19 384.10, 192.60 384.20 C 193.01 384.30, 193.29 384.29, 193.62 384.18 C 193.96 384.06, 194.17 383.87, 194.27 383.62 C 194.38 383.38, 194.31 383.16, 194.16 382.97 C 194.01 382.77, 193.79 382.72, 193.53 382.64 C 193.27 382.56, 193.11 382.58, 192.87 382.57 C 192.63 382.56, 192.49 382.65, 192.33 382.60 C 192.18 382.55, 192.16 382.50, 192.11 382.31 C 192.06 382.13, 192.04 381.99, 192.09 381.67 C 192.13 381.35, 192.18 381.15, 192.34 380.72 C 192.50 380.28, 192.63 380.01, 192.88 379.50 C 193.14 379.00, 193.34 378.69, 193.61 378.19 C 193.88 377.68, 194.08 377.42, 194.25 376.99 C 194.42 376.56, 194.47 376.33, 194.46 376.02 C 194.44 375.72, 194.33 375.56, 194.16 375.47 C 194.00 375.38, 193.87 375.41, 193.63 375.57 C 193.40 375.74, 193.30 375.92, 192.99 376.29 C 192.68 376.65, 192.50 376.93, 192.06 377.41 C 191.62 377.89, 191.35 378.19, 190.81 378.70 C 190.27 379.22, 189.95 379.51, 189.35 379.98 C 188.75 380.45, 188.42 380.69, 187.82 381.07 C 187.22 381.44, 186.89 381.60, 186.34 381.86 C 185.79 382.12, 185.51 382.22, 185.08 382.37 C 184.65 382.52, 184.47 382.56, 184.18 382.61 C 183.90 382.66, 183.80 382.66, 183.64 382.62 C 183.48 382.58, 183.44 382.55, 183.39 382.40 C 183.34 382.25, 183.34 382.14, 183.39 381.86 C 183.44 381.58, 183.49 381.39, 183.64 380.99 C 183.79 380.60, 183.92 380.35, 184.15 379.89 C 184.38 379.44, 184.56 379.17, 184.80 378.71 C 185.04 378.24, 185.19 377.98, 185.35 377.57 C 185.51 377.16, 185.57 376.98, 185.60 376.66 C 185.63 376.35, 185.65 376.20, 185.53 376.01 C 185.40 375.82, 185.20 375.71, 184.97 375.70" style="stroke: black; fill: black;"/><path d="M 200.67,380.26 C 200.79 380.44, 200.90 380.50, 201.17 380.56 C 201.44 380.62, 201.63 380.64, 202.03 380.57 C 202.43 380.50, 202.68 380.41, 203.17 380.21 C 203.66 380.01, 203.94 379.86, 204.47 379.59 C 204.99 379.33, 205.30 379.17, 205.80 378.86 C 206.30 378.56, 206.56 378.40, 206.98 378.08 C 207.40 377.77, 207.62 377.62, 207.90 377.28 C 208.18 376.94, 208.30 376.75, 208.38 376.37 C 208.45 376.00, 208.44 375.75, 208.27 375.40 C 208.09 375.04, 207.92 374.83, 207.50 374.62 C 207.08 374.41, 206.78 374.34, 206.17 374.34 C 205.56 374.34, 205.19 374.41, 204.46 374.61 C 203.73 374.81, 203.29 374.98, 202.52 375.34 C 201.74 375.70, 201.30 375.94, 200.59 376.42 C 199.87 376.89, 199.49 377.17, 198.92 377.70 C 198.35 378.23, 198.09 378.52, 197.75 379.07 C 197.41 379.62, 197.28 379.91, 197.22 380.46 C 197.15 381.00, 197.18 381.30, 197.40 381.79 C 197.62 382.28, 197.83 382.53, 198.32 382.90 C 198.80 383.27, 199.14 383.40, 199.84 383.62 C 200.53 383.84, 200.95 383.91, 201.79 383.98 C 202.63 384.06, 203.19 384.06, 204.03 383.99 C 204.86 383.93, 205.33 383.84, 205.98 383.66 C 206.63 383.48, 207.03 383.33, 207.27 383.10 C 207.52 382.87, 207.49 382.69, 207.21 382.52 C 206.93 382.35, 206.52 382.32, 205.87 382.24 C 205.23 382.17, 204.77 382.16, 203.98 382.13 C 203.19 382.11, 202.67 382.16, 201.92 382.12 C 201.18 382.09, 200.83 382.04, 200.26 381.94 C 199.70 381.84, 199.45 381.75, 199.10 381.61 C 198.74 381.46, 198.61 381.41, 198.47 381.22 C 198.33 381.03, 198.31 380.94, 198.39 380.68 C 198.47 380.41, 198.57 380.25, 198.89 379.90 C 199.20 379.55, 199.44 379.33, 199.96 378.93 C 200.49 378.53, 200.84 378.29, 201.51 377.91 C 202.17 377.53, 202.58 377.32, 203.28 377.02 C 203.97 376.73, 204.37 376.60, 204.97 376.42 C 205.57 376.24, 205.87 376.22, 206.30 376.14 C 206.73 376.07, 206.88 376.08, 207.11 376.04 C 207.34 376.01, 207.39 375.97, 207.45 375.96 C 207.50 375.94, 207.49 375.92, 207.39 375.97 C 207.28 376.03, 207.20 376.10, 206.94 376.25 C 206.69 376.40, 206.50 376.53, 206.11 376.75 C 205.71 376.97, 205.46 377.10, 204.97 377.34 C 204.49 377.57, 204.19 377.71, 203.68 377.92 C 203.18 378.13, 202.90 378.23, 202.45 378.40 C 202.00 378.58, 201.76 378.64, 201.44 378.80 C 201.12 378.97, 201.01 379.07, 200.84 379.25 C 200.67 379.42, 200.61 379.47, 200.58 379.67 C 200.54 379.87, 200.55 380.08, 200.67 380.26" style="stroke: black; fill: black;"/><path d="M 212.58,376.84 C 212.68 377.03, 212.74 377.07, 212.95 377.18 C 213.16 377.28, 213.30 377.33, 213.63 377.37 C 213.97 377.40, 214.19 377.37, 214.64 377.36 C 215.08 377.35, 215.36 377.31, 215.85 377.30 C 216.34 377.28, 216.63 377.27, 217.10 377.27 C 217.57 377.28, 217.82 377.30, 218.19 377.32 C 218.57 377.34, 218.75 377.38, 218.97 377.39 C 219.20 377.40, 219.27 377.38, 219.32 377.37 C 219.36 377.37, 219.35 377.31, 219.20 377.37 C 219.06 377.42, 218.93 377.45, 218.58 377.64 C 218.23 377.83, 217.98 378.00, 217.45 378.32 C 216.92 378.65, 216.58 378.88, 215.94 379.27 C 215.29 379.65, 214.90 379.88, 214.24 380.26 C 213.58 380.65, 213.21 380.85, 212.65 381.20 C 212.09 381.56, 211.81 381.71, 211.43 382.04 C 211.05 382.37, 210.90 382.51, 210.75 382.84 C 210.60 383.17, 210.59 383.37, 210.68 383.70 C 210.77 384.03, 210.90 384.24, 211.20 384.49 C 211.50 384.74, 211.72 384.83, 212.18 384.95 C 212.64 385.07, 212.93 385.06, 213.48 385.09 C 214.03 385.12, 214.35 385.11, 214.93 385.11 C 215.52 385.10, 215.83 385.09, 216.40 385.07 C 216.97 385.06, 217.26 385.06, 217.78 385.03 C 218.29 385.00, 218.57 384.99, 218.97 384.92 C 219.37 384.84, 219.52 384.78, 219.77 384.66 C 220.02 384.53, 220.13 384.47, 220.21 384.31 C 220.29 384.16, 220.27 384.02, 220.17 383.88 C 220.07 383.73, 219.96 383.70, 219.71 383.61 C 219.46 383.51, 219.30 383.45, 218.90 383.41 C 218.50 383.37, 218.23 383.41, 217.73 383.41 C 217.23 383.41, 216.95 383.42, 216.40 383.40 C 215.85 383.39, 215.55 383.37, 214.99 383.33 C 214.43 383.28, 214.13 383.25, 213.62 383.20 C 213.12 383.15, 212.86 383.09, 212.47 383.08 C 212.08 383.07, 211.90 383.09, 211.67 383.16 C 211.44 383.22, 211.36 383.32, 211.32 383.39 C 211.28 383.45, 211.30 383.51, 211.47 383.47 C 211.64 383.44, 211.79 383.38, 212.19 383.21 C 212.58 383.04, 212.86 382.90, 213.44 382.62 C 214.02 382.35, 214.40 382.17, 215.09 381.83 C 215.78 381.48, 216.20 381.29, 216.88 380.91 C 217.57 380.54, 217.95 380.34, 218.51 379.95 C 219.08 379.56, 219.36 379.37, 219.71 378.96 C 220.05 378.55, 220.17 378.32, 220.26 377.90 C 220.35 377.49, 220.30 377.24, 220.15 376.89 C 219.99 376.54, 219.83 376.38, 219.49 376.16 C 219.15 375.93, 218.91 375.88, 218.46 375.76 C 218.00 375.64, 217.73 375.63, 217.21 375.56 C 216.70 375.50, 216.41 375.49, 215.88 375.46 C 215.36 375.42, 215.07 375.39, 214.59 375.40 C 214.12 375.40, 213.87 375.40, 213.50 375.49 C 213.14 375.57, 212.98 375.67, 212.78 375.82 C 212.58 375.98, 212.52 376.07, 212.48 376.27 C 212.44 376.48, 212.49 376.66, 212.58 376.84" style="stroke: black; fill: black;"/><path d="M 225.63,385.25 C 225.47 385.42, 225.34 385.61, 225.36 385.67 C 225.37 385.72, 225.51 385.69, 225.71 385.51 C 225.90 385.34, 226.18 384.99, 226.35 384.79 C 226.52 384.59, 226.58 384.50, 226.55 384.51 C 226.52 384.51, 226.37 384.67, 226.19 384.81 C 226.01 384.96, 225.80 385.08, 225.63 385.25" style="stroke: black; fill: black;"/><path d="M 235.02,378.28 C 234.81 378.32, 234.74 378.41, 234.53 378.64 C 234.31 378.88, 234.19 379.01, 233.95 379.45 C 233.72 379.89, 233.61 380.21, 233.36 380.83 C 233.10 381.44, 232.97 381.81, 232.68 382.53 C 232.38 383.24, 232.19 383.65, 231.86 384.40 C 231.53 385.16, 231.35 385.57, 231.03 386.31 C 230.71 387.06, 230.54 387.45, 230.26 388.12 C 229.97 388.80, 229.83 389.14, 229.61 389.70 C 229.38 390.26, 229.26 390.52, 229.14 390.93 C 229.03 391.34, 228.97 391.51, 229.03 391.74 C 229.08 391.98, 229.20 392.08, 229.40 392.11 C 229.60 392.14, 229.80 392.11, 230.02 391.89 C 230.25 391.68, 230.34 391.49, 230.51 391.03 C 230.68 390.58, 230.70 390.25, 230.86 389.63 C 231.02 389.00, 231.10 388.62, 231.32 387.90 C 231.54 387.18, 231.67 386.78, 231.96 386.02 C 232.26 385.27, 232.42 384.87, 232.78 384.13 C 233.15 383.38, 233.36 383.00, 233.79 382.29 C 234.23 381.58, 234.47 381.21, 234.97 380.57 C 235.46 379.92, 235.73 379.59, 236.26 379.05 C 236.80 378.51, 237.09 378.27, 237.64 377.87 C 238.18 377.46, 238.48 377.29, 238.99 377.04 C 239.50 376.79, 239.76 376.72, 240.20 376.63 C 240.64 376.54, 240.85 376.55, 241.18 376.60 C 241.51 376.65, 241.65 376.71, 241.86 376.87 C 242.07 377.02, 242.14 377.13, 242.23 377.35 C 242.33 377.58, 242.36 377.71, 242.34 378.00 C 242.32 378.29, 242.28 378.45, 242.14 378.80 C 241.99 379.14, 241.88 379.34, 241.59 379.72 C 241.31 380.09, 241.12 380.30, 240.70 380.67 C 240.28 381.03, 240.01 381.22, 239.49 381.55 C 238.98 381.87, 238.67 382.03, 238.12 382.28 C 237.57 382.54, 237.27 382.65, 236.76 382.81 C 236.25 382.98, 235.98 383.04, 235.57 383.12 C 235.16 383.21, 234.98 383.21, 234.71 383.23 C 234.44 383.26, 234.36 383.22, 234.21 383.24 C 234.06 383.26, 234.05 383.31, 233.98 383.34 C 233.90 383.37, 233.93 383.37, 233.84 383.40 C 233.75 383.44, 233.61 383.44, 233.55 383.54 C 233.49 383.63, 233.47 383.72, 233.53 383.87 C 233.60 384.02, 233.67 384.15, 233.89 384.29 C 234.10 384.42, 234.26 384.49, 234.63 384.55 C 235.01 384.61, 235.25 384.63, 235.77 384.59 C 236.28 384.55, 236.60 384.50, 237.20 384.35 C 237.81 384.19, 238.16 384.08, 238.79 383.81 C 239.43 383.54, 239.79 383.37, 240.39 383.00 C 241.00 382.63, 241.32 382.41, 241.83 381.95 C 242.35 381.49, 242.59 381.23, 242.95 380.71 C 243.32 380.19, 243.47 379.90, 243.65 379.35 C 243.83 378.81, 243.88 378.50, 243.85 377.98 C 243.82 377.45, 243.73 377.16, 243.49 376.72 C 243.25 376.28, 243.05 376.06, 242.64 375.77 C 242.22 375.47, 241.95 375.36, 241.42 375.25 C 240.88 375.15, 240.57 375.14, 239.96 375.23 C 239.35 375.31, 239.02 375.41, 238.37 375.69 C 237.73 375.96, 237.39 376.16, 236.74 376.61 C 236.10 377.06, 235.76 377.34, 235.15 377.93 C 234.54 378.53, 234.24 378.88, 233.69 379.58 C 233.15 380.29, 232.89 380.68, 232.42 381.44 C 231.94 382.20, 231.72 382.60, 231.31 383.39 C 230.91 384.18, 230.73 384.59, 230.39 385.37 C 230.05 386.16, 229.89 386.57, 229.61 387.31 C 229.33 388.05, 229.18 388.43, 228.98 389.09 C 228.77 389.74, 228.64 390.06, 228.58 390.57 C 228.52 391.09, 228.53 391.33, 228.66 391.66 C 228.79 391.98, 228.97 392.12, 229.21 392.22 C 229.45 392.32, 229.63 392.32, 229.87 392.17 C 230.12 392.02, 230.20 391.86, 230.43 391.49 C 230.65 391.11, 230.74 390.85, 231.00 390.30 C 231.25 389.76, 231.40 389.43, 231.71 388.77 C 232.02 388.11, 232.20 387.73, 232.54 387.00 C 232.89 386.27, 233.08 385.87, 233.44 385.12 C 233.80 384.38, 234.00 383.98, 234.34 383.27 C 234.68 382.56, 234.87 382.20, 235.14 381.57 C 235.40 380.94, 235.53 380.62, 235.66 380.12 C 235.80 379.63, 235.81 379.43, 235.79 379.09 C 235.78 378.76, 235.76 378.62, 235.61 378.46 C 235.45 378.30, 235.24 378.24, 235.02 378.28" style="stroke: black; fill: black;"/><path d="M 253.55,377.23 C 253.57 377.00, 253.52 376.86, 253.33 376.66 C 253.14 376.47, 252.98 376.34, 252.62 376.24 C 252.25 376.13, 251.99 376.10, 251.51 376.13 C 251.03 376.16, 250.76 376.22, 250.22 376.39 C 249.68 376.56, 249.38 376.68, 248.81 376.98 C 248.24 377.27, 247.91 377.47, 247.36 377.87 C 246.82 378.28, 246.52 378.53, 246.07 379.00 C 245.62 379.48, 245.40 379.75, 245.12 380.25 C 244.84 380.74, 244.72 381.01, 244.66 381.48 C 244.60 381.96, 244.62 382.23, 244.80 382.64 C 244.98 383.05, 245.17 383.27, 245.56 383.53 C 245.96 383.79, 246.24 383.88, 246.78 383.95 C 247.32 384.01, 247.65 383.98, 248.27 383.85 C 248.89 383.72, 249.23 383.59, 249.88 383.32 C 250.53 383.05, 250.87 382.87, 251.52 382.50 C 252.17 382.13, 252.52 381.90, 253.10 381.47 C 253.69 381.03, 254.00 380.78, 254.46 380.32 C 254.92 379.86, 255.20 379.60, 255.40 379.19 C 255.60 378.78, 255.58 378.50, 255.45 378.25 C 255.31 378.00, 255.07 377.91, 254.72 377.94 C 254.37 377.97, 254.08 378.09, 253.70 378.40 C 253.32 378.72, 253.10 379.03, 252.81 379.53 C 252.53 380.03, 252.42 380.39, 252.29 380.92 C 252.15 381.44, 252.12 381.73, 252.15 382.15 C 252.18 382.56, 252.26 382.81, 252.43 382.99 C 252.60 383.17, 252.80 383.14, 252.99 383.03 C 253.17 382.91, 253.19 382.69, 253.37 382.41 C 253.55 382.13, 253.62 381.98, 253.88 381.64 C 254.14 381.29, 254.38 381.09, 254.67 380.68 C 254.95 380.27, 255.15 380.00, 255.31 379.59 C 255.46 379.17, 255.49 378.91, 255.45 378.61 C 255.40 378.30, 255.31 378.15, 255.09 378.07 C 254.86 378.00, 254.69 378.04, 254.34 378.25 C 253.99 378.45, 253.78 378.72, 253.34 379.09 C 252.89 379.46, 252.64 379.72, 252.11 380.10 C 251.58 380.48, 251.25 380.67, 250.67 380.98 C 250.09 381.30, 249.76 381.45, 249.20 381.68 C 248.64 381.91, 248.36 382.00, 247.88 382.12 C 247.40 382.24, 247.17 382.25, 246.83 382.29 C 246.48 382.32, 246.34 382.33, 246.14 382.31 C 245.94 382.29, 245.88 382.28, 245.83 382.18 C 245.78 382.08, 245.78 382.01, 245.89 381.79 C 246.00 381.57, 246.10 381.42, 246.37 381.10 C 246.64 380.79, 246.84 380.57, 247.24 380.21 C 247.65 379.85, 247.92 379.64, 248.40 379.31 C 248.87 378.99, 249.16 378.82, 249.63 378.57 C 250.11 378.32, 250.37 378.21, 250.77 378.07 C 251.17 377.93, 251.34 377.91, 251.64 377.88 C 251.94 377.86, 252.05 377.92, 252.27 377.94 C 252.49 377.95, 252.55 377.98, 252.74 377.95 C 252.93 377.92, 253.04 377.94, 253.20 377.80 C 253.37 377.65, 253.52 377.46, 253.55 377.23" style="stroke: black; fill: black;"/><path d="M 268.01,378.72 C 268.13 378.52, 268.14 378.35, 268.04 378.10 C 267.94 377.85, 267.81 377.67, 267.51 377.47 C 267.21 377.27, 266.97 377.16, 266.53 377.07 C 266.09 376.99, 265.83 376.98, 265.30 377.03 C 264.78 377.08, 264.48 377.13, 263.89 377.31 C 263.31 377.49, 262.97 377.62, 262.38 377.93 C 261.80 378.23, 261.46 378.45, 260.95 378.85 C 260.45 379.25, 260.19 379.49, 259.85 379.94 C 259.51 380.39, 259.36 380.63, 259.26 381.08 C 259.15 381.53, 259.17 381.79, 259.33 382.18 C 259.50 382.56, 259.68 382.77, 260.08 383.00 C 260.48 383.22, 260.77 383.29, 261.32 383.31 C 261.87 383.32, 262.20 383.24, 262.83 383.07 C 263.46 382.89, 263.81 382.73, 264.45 382.44 C 265.10 382.14, 265.45 381.95, 266.05 381.60 C 266.64 381.24, 266.96 381.03, 267.43 380.68 C 267.91 380.32, 268.15 380.15, 268.43 379.84 C 268.71 379.53, 268.82 379.37, 268.84 379.13 C 268.86 378.89, 268.74 378.71, 268.53 378.65 C 268.31 378.58, 268.06 378.58, 267.75 378.80 C 267.45 379.02, 267.28 379.26, 267.01 379.74 C 266.73 380.22, 266.64 380.58, 266.38 381.22 C 266.12 381.86, 266.00 382.24, 265.73 382.94 C 265.46 383.64, 265.32 384.01, 265.03 384.71 C 264.74 385.40, 264.60 385.75, 264.29 386.40 C 263.99 387.06, 263.82 387.39, 263.48 387.97 C 263.14 388.55, 262.96 388.83, 262.58 389.32 C 262.21 389.81, 262.01 390.04, 261.60 390.42 C 261.18 390.81, 260.96 390.98, 260.53 391.25 C 260.10 391.53, 259.87 391.63, 259.44 391.80 C 259.01 391.96, 258.77 392.01, 258.37 392.07 C 257.96 392.14, 257.75 392.14, 257.41 392.12 C 257.07 392.10, 256.91 392.06, 256.66 391.97 C 256.42 391.89, 256.31 391.81, 256.18 391.68 C 256.05 391.54, 256.04 391.48, 256.00 391.31 C 255.96 391.14, 256.05 391.05, 256.00 390.84 C 255.94 390.64, 255.92 390.42, 255.74 390.28 C 255.56 390.14, 255.33 390.05, 255.10 390.14 C 254.87 390.22, 254.69 390.39, 254.59 390.70 C 254.49 391.01, 254.47 391.31, 254.58 391.70 C 254.70 392.09, 254.87 392.33, 255.18 392.65 C 255.49 392.97, 255.70 393.10, 256.12 393.29 C 256.53 393.48, 256.77 393.53, 257.27 393.59 C 257.76 393.65, 258.05 393.65, 258.59 393.58 C 259.13 393.50, 259.43 393.42, 259.98 393.21 C 260.53 393.00, 260.81 392.87, 261.34 392.53 C 261.87 392.20, 262.14 391.99, 262.63 391.54 C 263.12 391.09, 263.36 390.82, 263.80 390.27 C 264.24 389.72, 264.44 389.41, 264.83 388.78 C 265.22 388.15, 265.39 387.79, 265.73 387.11 C 266.08 386.43, 266.23 386.07, 266.56 385.38 C 266.88 384.68, 267.05 384.31, 267.36 383.64 C 267.68 382.96, 267.84 382.60, 268.14 382.00 C 268.43 381.40, 268.64 381.14, 268.84 380.65 C 269.05 380.16, 269.15 379.94, 269.17 379.56 C 269.19 379.19, 269.09 378.99, 268.92 378.77 C 268.75 378.55, 268.60 378.48, 268.33 378.47 C 268.06 378.45, 267.93 378.51, 267.57 378.68 C 267.21 378.85, 267.01 379.04, 266.53 379.32 C 266.06 379.60, 265.76 379.79, 265.20 380.08 C 264.64 380.37, 264.30 380.53, 263.72 380.77 C 263.14 381.01, 262.82 381.11, 262.30 381.28 C 261.79 381.44, 261.53 381.48, 261.17 381.58 C 260.80 381.67, 260.66 381.71, 260.47 381.75 C 260.28 381.79, 260.23 381.84, 260.22 381.80 C 260.20 381.76, 260.24 381.72, 260.39 381.56 C 260.55 381.40, 260.67 381.26, 260.99 381.00 C 261.31 380.74, 261.54 380.54, 261.98 380.25 C 262.42 379.95, 262.71 379.77, 263.21 379.53 C 263.70 379.28, 263.98 379.17, 264.44 379.02 C 264.89 378.86, 265.14 378.81, 265.50 378.76 C 265.86 378.71, 265.99 378.72, 266.22 378.75 C 266.45 378.79, 266.50 378.88, 266.66 378.94 C 266.81 379.00, 266.84 379.03, 266.99 379.06 C 267.15 379.09, 267.23 379.16, 267.44 379.09 C 267.64 379.02, 267.89 378.92, 268.01 378.72" style="stroke: black; fill: black;"/><path d="M 273.72,381.46 C 273.86 381.63, 273.99 381.68, 274.30 381.73 C 274.61 381.78, 274.82 381.80, 275.29 381.73 C 275.75 381.66, 276.07 381.56, 276.64 381.36 C 277.21 381.17, 277.54 381.01, 278.13 380.75 C 278.73 380.49, 279.05 380.34, 279.60 380.06 C 280.16 379.78, 280.46 379.65, 280.91 379.36 C 281.35 379.06, 281.58 378.92, 281.84 378.58 C 282.10 378.24, 282.21 378.03, 282.22 377.65 C 282.23 377.27, 282.17 377.01, 281.89 376.69 C 281.61 376.37, 281.37 376.20, 280.83 376.05 C 280.28 375.91, 279.91 375.90, 279.16 375.97 C 278.42 376.04, 277.96 376.15, 277.11 376.40 C 276.25 376.65, 275.74 376.83, 274.89 377.21 C 274.03 377.58, 273.55 377.82, 272.83 378.27 C 272.11 378.73, 271.75 378.98, 271.27 379.48 C 270.79 379.99, 270.60 380.26, 270.44 380.79 C 270.27 381.33, 270.27 381.63, 270.44 382.14 C 270.61 382.65, 270.80 382.93, 271.28 383.35 C 271.76 383.77, 272.10 383.96, 272.84 384.24 C 273.57 384.52, 274.04 384.61, 274.96 384.76 C 275.88 384.91, 276.41 384.95, 277.44 385.01 C 278.46 385.07, 279.04 385.06, 280.08 385.06 C 281.13 385.06, 281.68 385.04, 282.65 385.00 C 283.62 384.95, 284.16 384.93, 284.95 384.84 C 285.73 384.74, 286.07 384.67, 286.59 384.53 C 287.11 384.39, 287.35 384.31, 287.53 384.14 C 287.71 383.96, 287.70 383.82, 287.50 383.67 C 287.29 383.53, 287.05 383.50, 286.53 383.42 C 286.00 383.34, 285.66 383.30, 284.87 383.28 C 284.09 383.26, 283.55 383.32, 282.60 383.33 C 281.64 383.35, 281.11 383.37, 280.10 383.35 C 279.09 383.33, 278.53 383.31, 277.56 383.24 C 276.59 383.16, 276.09 383.11, 275.26 382.97 C 274.43 382.84, 274.03 382.73, 273.40 382.56 C 272.78 382.38, 272.52 382.27, 272.13 382.10 C 271.74 381.93, 271.59 381.87, 271.46 381.70 C 271.33 381.52, 271.32 381.45, 271.47 381.22 C 271.62 380.99, 271.78 380.85, 272.21 380.56 C 272.65 380.26, 272.98 380.06, 273.65 379.73 C 274.32 379.39, 274.78 379.19, 275.57 378.89 C 276.37 378.59, 276.85 378.43, 277.62 378.23 C 278.38 378.03, 278.79 377.97, 279.40 377.87 C 280.01 377.78, 280.28 377.79, 280.66 377.74 C 281.04 377.69, 281.15 377.67, 281.30 377.62 C 281.44 377.57, 281.45 377.50, 281.39 377.50 C 281.33 377.50, 281.25 377.51, 281.00 377.61 C 280.75 377.70, 280.57 377.81, 280.15 377.99 C 279.74 378.17, 279.44 378.29, 278.91 378.51 C 278.37 378.72, 278.04 378.85, 277.46 379.05 C 276.89 379.25, 276.55 379.33, 276.01 379.51 C 275.48 379.69, 275.18 379.76, 274.77 379.93 C 274.37 380.11, 274.22 380.21, 273.98 380.40 C 273.75 380.58, 273.66 380.64, 273.60 380.86 C 273.55 381.07, 273.58 381.28, 273.72 381.46" style="stroke: black; fill: black;"/></svg>